<?xml version="1.0" encoding="UTF-8"?> <svg xmlns="http://www.w3.org/2000/svg" width="281" height="28" viewBox="0 0 281 28" fill="none"><path d="M76.5 6.30005H86.7V9.00005H79.7V12.3H86.3V15H79.7V18.7H87.2L86.9 21.4H76.5V6.30005ZM88.2 10.3H91V11.8C91.4 11.2 91.9 10.7 92.5 10.4C93.1 10.1 93.7 10 94.4 10C95.6 10 96.6 10.3 97.2 11C97.8 11.6 98.1 12.7 98.1 14.1V21.3H95.2V14.5C95.2 13.7 95.1 13.2 94.8 12.9C94.5 12.6 94.1 12.5 93.6 12.5C93.2 12.5 92.9 12.6 92.6 12.7C92.3 12.8 92.1 13 91.9 13.2C91.7 13.4 91.5 13.6 91.4 13.9C91.3 14.2 91.2 14.5 91.2 14.8V21.4H88.3L88.2 10.3ZM100.6 12.6H98.9V10.3H100.6V7.40005H103.5V10.3H106V12.6H103.5V17.6C103.5 18.2 103.6 18.6 103.8 18.8C104 19 104.3 19.1 104.7 19.1C104.9 19.1 105.1 19.1 105.3 19.1C105.5 19.1 105.7 19 105.9 19L106.3 21.1C105.9 21.2 105.5 21.3 105.1 21.4C104.7 21.5 104.4 21.5 104 21.5C102.8 21.5 101.9 21.2 101.3 20.6C100.7 20 100.4 19.1 100.4 17.7L100.6 12.6ZM117 17.8C116.8 19 116.3 20 115.5 20.6C114.7 21.2 113.6 21.5 112.1 21.5C110.3 21.5 108.9 21 108 20C107.1 19 106.6 17.6 106.6 15.8C106.6 14.9 106.7 14.1 107 13.3C107.3 12.6 107.6 12 108.1 11.5C108.6 11 109.2 10.6 109.8 10.4C110.5 10.1 111.2 10 112 10C113.7 10 114.9 10.5 115.8 11.4C116.7 12.4 117.1 13.7 117.1 15.3V16.5H109.5C109.5 17.4 109.8 18.1 110.2 18.6C110.6 19.1 111.3 19.3 112.1 19.3C113.2 19.3 113.9 18.8 114.2 17.8H117ZM114.3 14.6C114.3 13.9 114.1 13.3 113.7 12.9C113.3 12.5 112.8 12.3 112 12.3C111.6 12.3 111.3 12.4 111 12.5C110.7 12.6 110.5 12.8 110.3 13C110.1 13.2 110 13.5 109.8 13.7C109.7 14 109.6 14.3 109.6 14.6H114.3ZM118.7 10.3H121.5V11.8C121.9 11.2 122.3 10.8 122.8 10.5C123.3 10.2 123.9 10.1 124.4 10.1C124.7 10.1 124.9 10.1 125.1 10.1C125.3 10.1 125.4 10.1 125.6 10.2L125.3 12.9C125 12.8 124.6 12.8 124.1 12.8C123.8 12.8 123.5 12.8 123.2 12.9C122.9 13 122.7 13.1 122.4 13.3C122.1 13.5 122 13.8 121.8 14C121.7 14.3 121.6 14.6 121.6 14.9V21.2H118.7V10.3ZM126.8 10.3H129.6V11.7C130.4 10.5 131.6 9.90005 133 9.90005C134.5 9.90005 135.7 10.4 136.4 11.4C137.1 12.4 137.5 13.9 137.5 15.6C137.5 16.5 137.4 17.3 137.2 18C137 18.7 136.7 19.3 136.3 19.8C135.9 20.3 135.4 20.7 134.8 21C134.2 21.3 133.5 21.4 132.8 21.4C132.3 21.4 131.7 21.3 131.2 21.1C130.7 20.9 130.2 20.5 129.7 19.9V25.1H126.8V10.3ZM129.7 15.9C129.7 16.6 129.8 17.2 129.9 17.6C130 18 130.2 18.4 130.5 18.6C130.8 18.9 131.1 19 131.3 19.1C131.6 19.2 131.9 19.2 132.2 19.2C132.5 19.2 132.8 19.1 133.1 19C133.4 18.9 133.6 18.7 133.8 18.4C134 18.1 134.2 17.8 134.3 17.3C134.4 16.9 134.5 16.4 134.5 15.7C134.5 15.1 134.4 14.5 134.3 14.1C134.2 13.7 134 13.3 133.8 13C133.6 12.7 133.3 12.5 133.1 12.4C132.8 12.3 132.5 12.2 132.2 12.2C131.8 12.2 131.5 12.3 131.3 12.3C131 12.4 130.8 12.6 130.5 12.8C130.2 13.1 130 13.4 129.9 13.8C129.8 14.2 129.7 14.7 129.7 15.3V15.9ZM139.1 10.3H141.9V11.8C142.3 11.2 142.7 10.8 143.2 10.5C143.7 10.2 144.3 10.1 144.8 10.1C145.1 10.1 145.3 10.1 145.5 10.1C145.7 10.1 145.8 10.1 146 10.2L145.7 12.9C145.4 12.8 145 12.8 144.5 12.8C144.2 12.8 143.9 12.8 143.6 12.9C143.3 13 143 13.1 142.8 13.3C142.5 13.5 142.4 13.8 142.2 14C142.1 14.3 142 14.6 142 14.9V21.2H139.1V10.3ZM147.3 10.3H150.2V21.2H147.3V10.3ZM147.2 6.30005H150.2V9.00005H147.2V6.30005ZM154.3 17.8C154.4 18.4 154.6 18.9 155.1 19.1C155.5 19.3 156 19.4 156.6 19.4C157.3 19.4 157.8 19.3 158.1 19.1C158.4 18.9 158.6 18.6 158.6 18.2C158.6 17.9 158.5 17.7 158.3 17.5C158.1 17.3 157.8 17.2 157.2 17.1L155.7 16.8C154.4 16.6 153.4 16.2 152.7 15.7C152.1 15.2 151.7 14.4 151.7 13.4C151.7 12.9 151.8 12.4 152 12C152.2 11.6 152.6 11.2 153 10.9C153.4 10.6 153.9 10.4 154.5 10.2C155.1 10 155.7 9.90005 156.4 9.90005C157.3 9.90005 158 10 158.6 10.2C159.2 10.4 159.7 10.6 160 10.9C160.4 11.2 160.7 11.5 160.8 12C161 12.4 161.1 12.8 161.2 13.3L158.6 13.6C158.5 13.1 158.3 12.7 157.9 12.5C157.6 12.3 157.1 12.2 156.4 12.2C156 12.2 155.7 12.2 155.4 12.3C155.1 12.4 154.9 12.4 154.8 12.5C154.7 12.6 154.5 12.7 154.5 12.8C154.4 12.9 154.4 13.1 154.4 13.1C154.4 13.4 154.5 13.7 154.7 13.9C154.9 14 155.4 14.2 156 14.3L157.4 14.5C158.2 14.6 158.8 14.8 159.3 15C159.8 15.2 160.2 15.4 160.5 15.7C160.8 16 161 16.3 161.1 16.7C161.2 17.1 161.3 17.5 161.3 18.1C161.3 19.1 160.9 20 160.1 20.6C159.3 21.2 158.1 21.5 156.5 21.5C155.8 21.5 155.2 21.4 154.6 21.3C154 21.2 153.5 21 153 20.7C152.5 20.4 152.2 20 151.9 19.5C151.6 19 151.4 18.4 151.4 17.7L154.3 17.8ZM172.5 17.8C172.3 19 171.8 20 171 20.6C170.2 21.2 169.1 21.5 167.6 21.5C165.8 21.5 164.4 21 163.5 20C162.6 19 162.1 17.6 162.1 15.8C162.1 14.9 162.2 14.1 162.5 13.3C162.8 12.6 163.1 12 163.6 11.5C164.1 11 164.7 10.6 165.3 10.4C166 10.1 166.7 10 167.5 10C169.2 10 170.4 10.5 171.3 11.4C172.2 12.4 172.6 13.7 172.6 15.3V16.5H165C165 17.4 165.3 18.1 165.7 18.6C166.1 19.1 166.8 19.3 167.6 19.3C168.7 19.3 169.4 18.8 169.7 17.8H172.5ZM169.8 14.6C169.8 13.9 169.6 13.3 169.2 12.9C168.8 12.5 168.3 12.3 167.5 12.3C167.1 12.3 166.8 12.4 166.5 12.5C166.2 12.6 166 12.8 165.8 13C165.6 13.2 165.5 13.5 165.3 13.7C165.2 14 165.1 14.3 165.1 14.6H169.8ZM177.1 6.30005H180.6L183 16.7L185.5 6.40005H188.8L191.3 16.7L193.6 6.30005H196.9L192.9 21.2H189.9L187.1 10.2L184.4 21.2H181.5L177.1 6.30005ZM201.9 21.6C200.2 21.6 198.8 21.1 197.8 20.1C196.8 19.1 196.4 17.7 196.4 15.8C196.4 14.9 196.5 14.1 196.8 13.4C197.1 12.7 197.4 12.1 197.9 11.6C198.4 11.1 199 10.7 199.6 10.5C200.3 10.2 201 10.1 201.9 10.1C202.8 10.1 203.5 10.2 204.2 10.5C204.9 10.8 205.5 11.2 205.9 11.6C206.4 12.1 206.8 12.7 207 13.4C207.3 14.1 207.4 14.9 207.4 15.8C207.4 16.7 207.3 17.5 207 18.3C206.7 19 206.4 19.6 205.9 20.1C205.4 20.6 204.8 21 204.2 21.2C203.4 21.4 202.7 21.6 201.9 21.6ZM201.9 19.2C202.7 19.2 203.4 18.9 203.8 18.3C204.2 17.7 204.4 16.8 204.4 15.7C204.4 14.6 204.2 13.7 203.8 13.2C203.4 12.6 202.8 12.3 201.9 12.3C201 12.3 200.4 12.6 200 13.2C199.6 13.8 199.4 14.6 199.4 15.7C199.4 16.8 199.6 17.7 200 18.3C200.4 18.9 201 19.2 201.9 19.2ZM208.9 10.3H211.7V11.8C212.1 11.2 212.5 10.8 213 10.5C213.5 10.2 214.1 10.1 214.6 10.1C214.9 10.1 215.1 10.1 215.3 10.1C215.5 10.1 215.6 10.1 215.8 10.2L215.5 12.9C215.2 12.8 214.8 12.8 214.3 12.8C214 12.8 213.7 12.8 213.4 12.9C213.1 13 212.8 13.1 212.6 13.3C212.3 13.5 212.2 13.8 212 14C211.9 14.3 211.8 14.6 211.8 14.9V21.2H208.9V10.3ZM224.1 19.8C223.3 21 222.1 21.6 220.7 21.6C219.2 21.6 218 21.1 217.3 20.1C216.6 19.1 216.2 17.6 216.2 15.8C216.2 14.9 216.3 14.2 216.5 13.5C216.7 12.8 217 12.2 217.4 11.7C217.8 11.2 218.3 10.8 218.9 10.5C219.5 10.2 220.2 10.1 220.9 10.1C221.4 10.1 222 10.2 222.5 10.4C223 10.6 223.6 11 224 11.5V6.50005H226.9V21.4H224.1V19.8ZM224 15.7C224 15 223.9 14.4 223.8 14C223.7 13.6 223.5 13.2 223.2 13C222.9 12.7 222.7 12.6 222.4 12.5C222.1 12.4 221.8 12.4 221.5 12.4C221.2 12.4 220.9 12.5 220.6 12.6C220.3 12.7 220.1 12.9 219.9 13.2C219.7 13.5 219.5 13.8 219.4 14.3C219.3 14.7 219.2 15.2 219.2 15.8C219.2 16.5 219.3 17 219.4 17.5C219.5 17.9 219.7 18.3 219.9 18.6C220.1 18.9 220.4 19.1 220.6 19.2C220.8 19.3 221.2 19.4 221.5 19.4C222.2 19.4 222.8 19.2 223.2 18.8C223.5 18.5 223.7 18.2 223.8 17.8C223.9 17.4 224 16.9 224 16.3V15.7ZM229.1 6.30005H234.4C235.5 6.30005 236.5 6.40005 237.2 6.70005C237.9 7.00005 238.5 7.30005 239 7.70005C239.5 8.10005 239.7 8.60005 239.9 9.20005C240.1 9.70005 240.2 10.3 240.2 10.9C240.2 11.6 240.1 12.2 239.9 12.8C239.7 13.4 239.4 13.9 239 14.4C238.6 14.9 238 15.2 237.3 15.5C236.6 15.8 235.6 15.9 234.5 15.9H232.2V21.2H229.1V6.30005ZM234.4 13.3C234.9 13.3 235.4 13.2 235.7 13.1C236.1 13 236.4 12.8 236.6 12.6C236.8 12.4 236.9 12.2 237 11.9C237.1 11.6 237.1 11.3 237.1 11C237.1 10.7 237.1 10.3 237 10.1C236.9 9.80005 236.8 9.60005 236.6 9.40005C236.4 9.20005 236.1 9.10005 235.7 9.00005C235.4 8.90005 234.9 8.90005 234.4 8.90005H232.2V13.3C232.2 13.3 234.4 13.3 234.4 13.3ZM241.4 10.3H244.2V11.8C244.6 11.2 245 10.8 245.5 10.5C246 10.2 246.6 10.1 247.1 10.1C247.4 10.1 247.6 10.1 247.8 10.1C248 10.1 248.1 10.1 248.3 10.2L248 12.9C247.7 12.8 247.3 12.8 246.8 12.8C246.5 12.8 246.2 12.8 245.9 12.9C245.6 13 245.3 13.1 245.1 13.3C244.8 13.5 244.7 13.8 244.5 14C244.4 14.3 244.3 14.6 244.3 14.9V21.2H241.4V10.3ZM258.9 17.8C258.7 19 258.2 20 257.4 20.6C256.6 21.2 255.5 21.5 254 21.5C252.2 21.5 250.8 21 249.9 20C249 19 248.5 17.6 248.5 15.8C248.5 14.9 248.6 14.1 248.9 13.3C249.2 12.6 249.5 12 250 11.5C250.5 11 251.1 10.6 251.7 10.4C252.4 10.1 253.1 10 253.9 10C255.6 10 256.8 10.5 257.7 11.4C258.6 12.4 259 13.7 259 15.3V16.5H251.4C251.4 17.4 251.7 18.1 252.1 18.6C252.5 19.1 253.2 19.3 254 19.3C255.1 19.3 255.8 18.8 256.1 17.8C256.1 17.8 258.9 17.8 258.9 17.8ZM256.2 14.6C256.2 13.9 256 13.3 255.6 12.9C255.2 12.5 254.7 12.3 253.9 12.3C253.5 12.3 253.2 12.4 252.9 12.5C252.6 12.6 252.4 12.8 252.2 13C252 13.2 251.9 13.5 251.7 13.7C251.6 14 251.5 14.3 251.5 14.6H256.2ZM262.7 17.8C262.8 18.4 263 18.9 263.5 19.1C264 19.3 264.4 19.4 265 19.4C265.7 19.4 266.2 19.3 266.5 19.1C266.8 18.9 267 18.6 267 18.2C267 17.9 266.9 17.7 266.7 17.5C266.5 17.3 266.2 17.2 265.6 17.1L264.1 16.8C262.8 16.6 261.8 16.2 261.1 15.7C260.5 15.2 260.1 14.4 260.1 13.4C260.1 12.9 260.2 12.4 260.4 12C260.6 11.6 261 11.2 261.4 10.9C261.8 10.6 262.3 10.4 262.9 10.2C263.5 10 264.1 9.90005 264.8 9.90005C265.7 9.90005 266.4 10 267 10.2C267.6 10.4 268.1 10.6 268.4 10.9C268.7 11.2 269.1 11.5 269.2 12C269.4 12.4 269.5 12.8 269.6 13.3L267 13.6C266.9 13.1 266.7 12.7 266.3 12.5C266 12.3 265.5 12.2 264.8 12.2C264.4 12.2 264.1 12.2 263.8 12.3C263.5 12.4 263.3 12.4 263.2 12.5C263.1 12.6 262.9 12.7 262.9 12.8C262.8 12.9 262.8 13.1 262.8 13.1C262.8 13.4 262.9 13.7 263.1 13.9C263.3 14 263.8 14.2 264.4 14.3L265.8 14.5C266.6 14.6 267.2 14.8 267.7 15C268.2 15.2 268.6 15.4 268.9 15.7C269.2 16 269.4 16.3 269.5 16.7C269.6 17.1 269.7 17.5 269.7 18.1C269.7 19.1 269.3 20 268.5 20.6C267.7 21.2 266.5 21.5 264.9 21.5C264.2 21.5 263.6 21.4 263 21.3C262.4 21.2 261.9 21 261.4 20.7C260.9 20.4 260.5 20 260.3 19.5C260.1 19 259.8 18.4 259.8 17.7L262.7 17.8ZM273.3 17.8C273.4 18.4 273.6 18.9 274.1 19.1C274.6 19.3 275 19.4 275.6 19.4C276.3 19.4 276.8 19.3 277.1 19.1C277.4 18.9 277.6 18.6 277.6 18.2C277.6 17.9 277.5 17.7 277.3 17.5C277.1 17.3 276.8 17.2 276.2 17.1L274.7 16.8C273.4 16.6 272.4 16.2 271.7 15.7C271.1 15.2 270.7 14.4 270.7 13.4C270.7 12.9 270.8 12.4 271 12C271.2 11.6 271.6 11.2 272 10.9C272.4 10.6 272.9 10.4 273.5 10.2C274.1 10 274.7 9.90005 275.4 9.90005C276.3 9.90005 277 10 277.6 10.2C278.2 10.4 278.7 10.6 279 10.9C279.4 11.2 279.7 11.5 279.8 12C280 12.4 280.1 12.8 280.2 13.3L277.6 13.6C277.5 13.1 277.3 12.7 276.9 12.5C276.6 12.3 276.1 12.2 275.4 12.2C275 12.2 274.7 12.2 274.4 12.3C274.1 12.4 273.9 12.4 273.8 12.5C273.7 12.6 273.5 12.7 273.5 12.8C273.4 12.9 273.4 13.1 273.4 13.1C273.4 13.4 273.5 13.7 273.7 13.9C273.9 14 274.4 14.2 275 14.3L276.4 14.5C277.2 14.6 277.8 14.8 278.3 15C278.8 15.2 279.2 15.4 279.5 15.7C279.8 16 280 16.3 280.1 16.7C280.2 17.1 280.3 17.5 280.3 18.1C280.3 19.1 279.9 20 279.1 20.6C278.3 21.2 277.1 21.5 275.5 21.5C274.8 21.5 274.2 21.4 273.6 21.3C273 21.2 272.5 21 272 20.7C271.5 20.4 271.2 20 270.9 19.5C270.6 19 270.4 18.4 270.4 17.7L273.3 17.8Z" fill="black"></path><path d="M69.7 0H69.1V25.7H69.7V0Z" fill="black"></path><path d="M14 0C6.3 0 0 6.3 0 14C0 21.7 6.3 28 14 28C21.7 28 28 21.7 28 14C28 6.3 21.7 0 14 0ZM1.4 14C1.4 12.2 1.8 10.4 2.5 8.9L8.5 25.4C4.3 23.3 1.4 19 1.4 14ZM14 26.6C12.8 26.6 11.6 26.4 10.4 26.1L14.2 15.1L18.1 25.7C18.1 25.8 18.2 25.8 18.2 25.9C16.9 26.3 15.5 26.6 14 26.6ZM15.7 8.1C16.5 8 17.2 8 17.2 8C17.9 7.9 17.8 6.9 17.1 7C17.1 7 15 7.1 13.7 7.1C12.5 7.1 10.4 7 10.4 7C9.7 6.9 9.6 8 10.3 8C10.3 8 11 8.1 11.6 8.1L13.5 13.5L10.8 21.7L6.3 8.1C7.1 8 7.7 8 7.7 8C8.4 7.9 8.3 6.9 7.6 7C7.6 7 5.5 7.1 4.2 7.1C3.9 7.1 3.7 7.1 3.4 7.1C5.7 3.6 9.6 1.4 14 1.4C17.3 1.4 20.3 2.7 22.5 4.7C22.4 4.7 22.4 4.7 22.3 4.7C21.1 4.7 20.2 5.8 20.2 7C20.2 8 20.8 8.9 21.4 10C21.9 10.8 22.4 11.9 22.4 13.5C22.4 14.6 22.1 16 21.4 17.6L20.2 21.8L15.7 8.1ZM20.4 24.9L24.2 13.8C24.9 12 25.2 10.6 25.2 9.3C25.2 8.8 25.2 8.4 25.1 8C26.1 9.8 26.6 11.8 26.6 14C26.6 18.6 24.1 22.7 20.4 24.9Z" fill="#13191E"></path><path d="M51.3 6.19995H56.6C57.7 6.19995 58.7 6.29995 59.4 6.59995C60.1 6.89995 60.7 7.19995 61.2 7.59995C61.7 7.99995 61.9 8.49995 62.1 9.09995C62.3 9.59995 62.4 10.2 62.4 10.8C62.4 11.5 62.3 12.1 62.1 12.7C61.9 13.3 61.6 13.8 61.2 14.3C60.8 14.8 60.2 15.1 59.5 15.4C58.8 15.7 57.8 15.8 56.7 15.8H54.4V21.1H51.3V6.19995ZM56.6 13.2C57.1 13.2 57.6 13.1 57.9 13C58.3 12.9 58.6 12.7 58.8 12.5C59 12.3 59.1 12.1 59.2 11.8C59.3 11.5 59.3 11.2 59.3 10.9C59.3 10.6 59.3 10.2 59.2 9.99995C59.1 9.69995 59 9.49995 58.8 9.29995C58.6 9.09995 58.3 8.99995 57.9 8.89995C57.6 8.79995 57.1 8.79995 56.6 8.79995H54.4V13.2C54.4 13.2 56.6 13.2 56.6 13.2Z" fill="#A66915"></path><path d="M31.3 6.19995H34.8L38.4 16.7L42.1 6.19995H45.4L39.8 21.1H36.9L31.3 6.19995Z" fill="#A66915"></path><path fill-rule="evenodd" clip-rule="evenodd" d="M49.3 6.19995H47.2L46.2 8.89995V21.1H49.3V6.19995Z" fill="#A66915"></path></svg> 